<?xml version="1.0" encoding="UTF-8" standalone="no"?>
<!DOCTYPE svg PUBLIC "-//W3C//DTD SVG 1.1//EN"
 "http://www.w3.org/Graphics/SVG/1.1/DTD/svg11.dtd">
<!-- Generated by graphviz version 2.26.3 (20100126.1600)
 -->
<!-- Title: G Pages: 1 -->
<svg width="1098pt" height="2230pt"
 viewBox="0.00 0.00 1098.00 2230.00" xmlns="http://www.w3.org/2000/svg" xmlns:xlink="http://www.w3.org/1999/xlink">
<g id="graph1" class="graph" transform="scale(1 1) rotate(0) translate(4 2226)">
<title>G</title>
<polygon fill="white" stroke="white" points="-4,5 -4,-2226 1095,-2226 1095,5 -4,5"/>
<g id="graph2" class="cluster"><title>cluster_Global</title>
<polyline fill="none" stroke="gray" points="20,-98 1070,-98 "/>
<path fill="none" stroke="gray" d="M1070,-98C1076,-98 1082,-104 1082,-110"/>
<polyline fill="none" stroke="gray" points="1082,-110 1082,-2202 "/>
<path fill="none" stroke="gray" d="M1082,-2202C1082,-2208 1076,-2214 1070,-2214"/>
<polyline fill="none" stroke="gray" points="1070,-2214 20,-2214 "/>
<path fill="none" stroke="gray" d="M20,-2214C14,-2214 8,-2208 8,-2202"/>
<polyline fill="none" stroke="gray" points="8,-2202 8,-110 "/>
<path fill="none" stroke="gray" d="M8,-110C8,-104 14,-98 20,-98"/>
<text text-anchor="middle" x="545" y="-2200.1" font-family="Times Roman,serif" font-size="11.00" fill="gray">\</text>
</g>
<g id="graph3" class="cluster"><title>cluster_\Phine</title>
<polyline fill="none" stroke="gray" points="28,-106 1062,-106 "/>
<path fill="none" stroke="gray" d="M1062,-106C1068,-106 1074,-112 1074,-118"/>
<polyline fill="none" stroke="gray" points="1074,-118 1074,-2172 "/>
<path fill="none" stroke="gray" d="M1074,-2172C1074,-2178 1068,-2184 1062,-2184"/>
<polyline fill="none" stroke="gray" points="1062,-2184 28,-2184 "/>
<path fill="none" stroke="gray" d="M28,-2184C22,-2184 16,-2178 16,-2172"/>
<polyline fill="none" stroke="gray" points="16,-2172 16,-118 "/>
<path fill="none" stroke="gray" d="M16,-118C16,-112 22,-106 28,-106"/>
<text text-anchor="middle" x="545" y="-2170.1" font-family="Times Roman,serif" font-size="11.00" fill="gray">Phine</text>
</g>
<g id="graph4" class="cluster"><title>cluster_\Phine\Phar</title>
<polyline fill="none" stroke="gray" points="444,-114 1054,-114 "/>
<path fill="none" stroke="gray" d="M1054,-114C1060,-114 1066,-120 1066,-126"/>
<polyline fill="none" stroke="gray" points="1066,-126 1066,-1646 "/>
<path fill="none" stroke="gray" d="M1066,-1646C1066,-1652 1060,-1658 1054,-1658"/>
<polyline fill="none" stroke="gray" points="1054,-1658 444,-1658 "/>
<path fill="none" stroke="gray" d="M444,-1658C438,-1658 432,-1652 432,-1646"/>
<polyline fill="none" stroke="gray" points="432,-1646 432,-126 "/>
<path fill="none" stroke="gray" d="M432,-126C432,-120 438,-114 444,-114"/>
<text text-anchor="middle" x="749" y="-1644.1" font-family="Times Roman,serif" font-size="11.00" fill="gray">Phar</text>
</g>
<g id="graph5" class="cluster"><title>cluster_\Phine\Phar\Manifest</title>
<polyline fill="none" stroke="gray" points="965,-1554 1011,-1554 "/>
<path fill="none" stroke="gray" d="M1011,-1554C1017,-1554 1023,-1560 1023,-1566"/>
<polyline fill="none" stroke="gray" points="1023,-1566 1023,-1616 "/>
<path fill="none" stroke="gray" d="M1023,-1616C1023,-1622 1017,-1628 1011,-1628"/>
<polyline fill="none" stroke="gray" points="1011,-1628 965,-1628 "/>
<path fill="none" stroke="gray" d="M965,-1628C959,-1628 953,-1622 953,-1616"/>
<polyline fill="none" stroke="gray" points="953,-1616 953,-1566 "/>
<path fill="none" stroke="gray" d="M953,-1566C953,-1560 959,-1554 965,-1554"/>
<text text-anchor="middle" x="988" y="-1614.1" font-family="Times Roman,serif" font-size="11.00" fill="gray">Manifest</text>
</g>
<g id="graph6" class="cluster"><title>cluster_\Phine\Phar\File</title>
<polyline fill="none" stroke="gray" points="964,-1418 1012,-1418 "/>
<path fill="none" stroke="gray" d="M1012,-1418C1018,-1418 1024,-1424 1024,-1430"/>
<polyline fill="none" stroke="gray" points="1024,-1430 1024,-1534 "/>
<path fill="none" stroke="gray" d="M1024,-1534C1024,-1540 1018,-1546 1012,-1546"/>
<polyline fill="none" stroke="gray" points="1012,-1546 964,-1546 "/>
<path fill="none" stroke="gray" d="M964,-1546C958,-1546 952,-1540 952,-1534"/>
<polyline fill="none" stroke="gray" points="952,-1534 952,-1430 "/>
<path fill="none" stroke="gray" d="M952,-1430C952,-1424 958,-1418 964,-1418"/>
<text text-anchor="middle" x="988" y="-1532.1" font-family="Times Roman,serif" font-size="11.00" fill="gray">File</text>
</g>
<g id="graph7" class="cluster"><title>cluster_\Phine\Phar\Stub</title>
<polyline fill="none" stroke="gray" points="963,-1336 1013,-1336 "/>
<path fill="none" stroke="gray" d="M1013,-1336C1019,-1336 1025,-1342 1025,-1348"/>
<polyline fill="none" stroke="gray" points="1025,-1348 1025,-1398 "/>
<path fill="none" stroke="gray" d="M1025,-1398C1025,-1404 1019,-1410 1013,-1410"/>
<polyline fill="none" stroke="gray" points="1013,-1410 963,-1410 "/>
<path fill="none" stroke="gray" d="M963,-1410C957,-1410 951,-1404 951,-1398"/>
<polyline fill="none" stroke="gray" points="951,-1398 951,-1348 "/>
<path fill="none" stroke="gray" d="M951,-1348C951,-1342 957,-1336 963,-1336"/>
<text text-anchor="middle" x="988" y="-1396.1" font-family="Times Roman,serif" font-size="11.00" fill="gray">Stub</text>
</g>
<g id="graph8" class="cluster"><title>cluster_\Phine\Phar\Signature</title>
<polyline fill="none" stroke="gray" points="452,-328 1023,-328 "/>
<path fill="none" stroke="gray" d="M1023,-328C1029,-328 1035,-334 1035,-340"/>
<polyline fill="none" stroke="gray" points="1035,-340 1035,-590 "/>
<path fill="none" stroke="gray" d="M1035,-590C1035,-596 1029,-602 1023,-602"/>
<polyline fill="none" stroke="gray" points="1023,-602 452,-602 "/>
<path fill="none" stroke="gray" d="M452,-602C446,-602 440,-596 440,-590"/>
<polyline fill="none" stroke="gray" points="440,-590 440,-340 "/>
<path fill="none" stroke="gray" d="M440,-340C440,-334 446,-328 452,-328"/>
<text text-anchor="middle" x="737.5" y="-588.1" font-family="Times Roman,serif" font-size="11.00" fill="gray">Signature</text>
</g>
<g id="graph9" class="cluster"><title>cluster_\Phine\Phar\Signature\Algorithm</title>
<polyline fill="none" stroke="gray" points="460,-336 1015,-336 "/>
<path fill="none" stroke="gray" d="M1015,-336C1021,-336 1027,-342 1027,-348"/>
<polyline fill="none" stroke="gray" points="1027,-348 1027,-560 "/>
<path fill="none" stroke="gray" d="M1027,-560C1027,-566 1021,-572 1015,-572"/>
<polyline fill="none" stroke="gray" points="1015,-572 460,-572 "/>
<path fill="none" stroke="gray" d="M460,-572C454,-572 448,-566 448,-560"/>
<polyline fill="none" stroke="gray" points="448,-560 448,-348 "/>
<path fill="none" stroke="gray" d="M448,-348C448,-342 454,-336 460,-336"/>
<text text-anchor="middle" x="737.5" y="-558.1" font-family="Times Roman,serif" font-size="11.00" fill="gray">Algorithm</text>
</g>
<g id="graph10" class="cluster"><title>cluster_\Phine\Phar\Exception</title>
<polyline fill="none" stroke="gray" points="930,-1046 1046,-1046 "/>
<path fill="none" stroke="gray" d="M1046,-1046C1052,-1046 1058,-1052 1058,-1058"/>
<polyline fill="none" stroke="gray" points="1058,-1058 1058,-1270 "/>
<path fill="none" stroke="gray" d="M1058,-1270C1058,-1276 1052,-1282 1046,-1282"/>
<polyline fill="none" stroke="gray" points="1046,-1282 930,-1282 "/>
<path fill="none" stroke="gray" d="M930,-1282C924,-1282 918,-1276 918,-1270"/>
<polyline fill="none" stroke="gray" points="918,-1270 918,-1058 "/>
<path fill="none" stroke="gray" d="M918,-1058C918,-1052 924,-1046 930,-1046"/>
<text text-anchor="middle" x="988" y="-1268.1" font-family="Times Roman,serif" font-size="11.00" fill="gray">Exception</text>
</g>
<g id="graph11" class="cluster"><title>cluster_\Phine\Phar\Subject</title>
<polyline fill="none" stroke="gray" points="702,-610 1038,-610 "/>
<path fill="none" stroke="gray" d="M1038,-610C1044,-610 1050,-616 1050,-622"/>
<polyline fill="none" stroke="gray" points="1050,-622 1050,-1026 "/>
<path fill="none" stroke="gray" d="M1050,-1026C1050,-1032 1044,-1038 1038,-1038"/>
<polyline fill="none" stroke="gray" points="1038,-1038 702,-1038 "/>
<path fill="none" stroke="gray" d="M702,-1038C696,-1038 690,-1032 690,-1026"/>
<polyline fill="none" stroke="gray" points="690,-1026 690,-622 "/>
<path fill="none" stroke="gray" d="M690,-622C690,-616 696,-610 702,-610"/>
<text text-anchor="middle" x="870" y="-1024.1" font-family="Times Roman,serif" font-size="11.00" fill="gray">Subject</text>
</g>
<g id="graph12" class="cluster"><title>cluster_\Phine\Phar\Subject\Builder</title>
<polyline fill="none" stroke="gray" points="946,-664 1030,-664 "/>
<path fill="none" stroke="gray" d="M1030,-664C1036,-664 1042,-670 1042,-676"/>
<polyline fill="none" stroke="gray" points="1042,-676 1042,-996 "/>
<path fill="none" stroke="gray" d="M1042,-996C1042,-1002 1036,-1008 1030,-1008"/>
<polyline fill="none" stroke="gray" points="1030,-1008 946,-1008 "/>
<path fill="none" stroke="gray" d="M946,-1008C940,-1008 934,-1002 934,-996"/>
<polyline fill="none" stroke="gray" points="934,-996 934,-676 "/>
<path fill="none" stroke="gray" d="M934,-676C934,-670 940,-664 946,-664"/>
<text text-anchor="middle" x="988" y="-994.1" font-family="Times Roman,serif" font-size="11.00" fill="gray">Builder</text>
</g>
<g id="graph13" class="cluster"><title>cluster_\Phine\Exception</title>
<polyline fill="none" stroke="gray" points="277,-1741 341,-1741 "/>
<path fill="none" stroke="gray" d="M341,-1741C347,-1741 353,-1747 353,-1753"/>
<polyline fill="none" stroke="gray" points="353,-1753 353,-1803 "/>
<path fill="none" stroke="gray" d="M353,-1803C353,-1809 347,-1815 341,-1815"/>
<polyline fill="none" stroke="gray" points="341,-1815 277,-1815 "/>
<path fill="none" stroke="gray" d="M277,-1815C271,-1815 265,-1809 265,-1803"/>
<polyline fill="none" stroke="gray" points="265,-1803 265,-1753 "/>
<path fill="none" stroke="gray" d="M265,-1753C265,-1747 271,-1741 277,-1741"/>
<text text-anchor="middle" x="309" y="-1801.1" font-family="Times Roman,serif" font-size="11.00" fill="gray">Exception</text>
</g>
<g id="graph14" class="cluster"><title>cluster_\Phine\Path</title>
<polyline fill="none" stroke="gray" points="463,-1666 567,-1666 "/>
<path fill="none" stroke="gray" d="M567,-1666C573,-1666 579,-1672 579,-1678"/>
<polyline fill="none" stroke="gray" points="579,-1678 579,-1812 "/>
<path fill="none" stroke="gray" d="M579,-1812C579,-1818 573,-1824 567,-1824"/>
<polyline fill="none" stroke="gray" points="567,-1824 463,-1824 "/>
<path fill="none" stroke="gray" d="M463,-1824C457,-1824 451,-1818 451,-1812"/>
<polyline fill="none" stroke="gray" points="451,-1812 451,-1678 "/>
<path fill="none" stroke="gray" d="M451,-1678C451,-1672 457,-1666 463,-1666"/>
<text text-anchor="middle" x="515" y="-1810.1" font-family="Times Roman,serif" font-size="11.00" fill="gray">Path</text>
</g>
<g id="graph15" class="cluster"><title>cluster_\Phine\Path\Exception</title>
<polyline fill="none" stroke="gray" points="471,-1720 559,-1720 "/>
<path fill="none" stroke="gray" d="M559,-1720C565,-1720 571,-1726 571,-1732"/>
<polyline fill="none" stroke="gray" points="571,-1732 571,-1782 "/>
<path fill="none" stroke="gray" d="M571,-1782C571,-1788 565,-1794 559,-1794"/>
<polyline fill="none" stroke="gray" points="559,-1794 471,-1794 "/>
<path fill="none" stroke="gray" d="M471,-1794C465,-1794 459,-1788 459,-1782"/>
<polyline fill="none" stroke="gray" points="459,-1782 459,-1732 "/>
<path fill="none" stroke="gray" d="M459,-1732C459,-1726 465,-1720 471,-1720"/>
<text text-anchor="middle" x="515" y="-1780.1" font-family="Times Roman,serif" font-size="11.00" fill="gray">Exception</text>
</g>
<g id="graph16" class="cluster"><title>cluster_\Phine\Observer</title>
<polyline fill="none" stroke="gray" points="36,-1844 580,-1844 "/>
<path fill="none" stroke="gray" d="M580,-1844C586,-1844 592,-1850 592,-1856"/>
<polyline fill="none" stroke="gray" points="592,-1856 592,-2142 "/>
<path fill="none" stroke="gray" d="M592,-2142C592,-2148 586,-2154 580,-2154"/>
<polyline fill="none" stroke="gray" points="580,-2154 36,-2154 "/>
<path fill="none" stroke="gray" d="M36,-2154C30,-2154 24,-2148 24,-2142"/>
<polyline fill="none" stroke="gray" points="24,-2142 24,-1856 "/>
<path fill="none" stroke="gray" d="M24,-1856C24,-1850 30,-1844 36,-1844"/>
<text text-anchor="middle" x="308" y="-2140.1" font-family="Times Roman,serif" font-size="11.00" fill="gray">Observer</text>
</g>
<g id="graph17" class="cluster"><title>cluster_\Phine\Observer\Exception</title>
<polyline fill="none" stroke="gray" points="458,-1898 572,-1898 "/>
<path fill="none" stroke="gray" d="M572,-1898C578,-1898 584,-1904 584,-1910"/>
<polyline fill="none" stroke="gray" points="584,-1910 584,-2014 "/>
<path fill="none" stroke="gray" d="M584,-2014C584,-2020 578,-2026 572,-2026"/>
<polyline fill="none" stroke="gray" points="572,-2026 458,-2026 "/>
<path fill="none" stroke="gray" d="M458,-2026C452,-2026 446,-2020 446,-2014"/>
<polyline fill="none" stroke="gray" points="446,-2014 446,-1910 "/>
<path fill="none" stroke="gray" d="M446,-1910C446,-1904 452,-1898 458,-1898"/>
<text text-anchor="middle" x="515" y="-2012.1" font-family="Times Roman,serif" font-size="11.00" fill="gray">Exception</text>
</g>
<!-- \\Phine\\Phar\\Manifest\\Entry -->
<g id="node5" class="node"><title>\\Phine\\Phar\\Manifest\\Entry</title>
<polygon fill="none" stroke="black" points="1015,-1598 961,-1598 961,-1562 1015,-1562 1015,-1598"/>
<text text-anchor="middle" x="988" y="-1577.1" font-family="Times Roman,serif" font-size="11.00">Entry</text>
</g>
<!-- \\Phine\\Phar\\File\\Writer -->
<g id="node7" class="node"><title>\\Phine\\Phar\\File\\Writer</title>
<polygon fill="none" stroke="black" points="1015,-1516 961,-1516 961,-1480 1015,-1480 1015,-1516"/>
<text text-anchor="middle" x="988" y="-1495.1" font-family="Times Roman,serif" font-size="11.00">Writer</text>
</g>
<!-- \\Phine\\Phar\\File\\Reader -->
<g id="node8" class="node"><title>\\Phine\\Phar\\File\\Reader</title>
<polygon fill="none" stroke="black" points="1015,-1462 961,-1462 961,-1426 1015,-1426 1015,-1462"/>
<text text-anchor="middle" x="988" y="-1441.1" font-family="Times Roman,serif" font-size="11.00">Reader</text>
</g>
<!-- \\Phine\\Phar\\Stub\\Extract -->
<g id="node10" class="node"><title>\\Phine\\Phar\\Stub\\Extract</title>
<polygon fill="none" stroke="black" points="1016,-1380 960,-1380 960,-1344 1016,-1344 1016,-1380"/>
<text text-anchor="middle" x="988" y="-1359.1" font-family="Times Roman,serif" font-size="11.00">Extract</text>
</g>
<!-- \\Phine\\Phar\\Signature\\Algorithm\\AbstractHashAlgorithm -->
<g id="node13" class="node"><title>\\Phine\\Phar\\Signature\\Algorithm\\AbstractHashAlgorithm</title>
<polygon fill="none" stroke="black" points="823,-461 679,-461 679,-425 823,-425 823,-461"/>
<text text-anchor="start" x="721" y="-448.433" font-family="Times Roman,serif" font-size="11.00">«abstract»</text>
<text text-anchor="start" x="687.5" y="-435.233" font-family="Times Roman,serif" font-size="11.00">AbstractHashAlgorithm</text>
</g>
<!-- \\Phine\\Phar\\Signature\\Algorithm\\AlgorithmInterface -->
<g id="node19" class="node"><title>\\Phine\\Phar\\Signature\\Algorithm\\AlgorithmInterface</title>
<polygon fill="none" stroke="black" points="573,-488 457,-488 457,-452 573,-452 573,-488"/>
<text text-anchor="middle" x="515" y="-467.1" font-family="Times Roman,serif" font-size="11.00">AlgorithmInterface</text>
</g>
<!-- \\Phine\\Phar\\Signature\\Algorithm\\AbstractHashAlgorithm&#45;&gt;\\Phine\\Phar\\Signature\\Algorithm\\AlgorithmInterface -->
<g id="edge20" class="edge"><title>\\Phine\\Phar\\Signature\\Algorithm\\AbstractHashAlgorithm&#45;&gt;\\Phine\\Phar\\Signature\\Algorithm\\AlgorithmInterface</title>
<path fill="none" stroke="black" stroke-dasharray="1,5" d="M678.91,-451.248C648.585,-454.717 613.468,-458.735 583.535,-462.159"/>
<polygon fill="none" stroke="black" points="583.135,-458.682 573.598,-463.296 583.931,-465.637 583.135,-458.682"/>
</g>
<!-- \\Phine\\Phar\\Signature\\Algorithm\\SHA512 -->
<g id="node14" class="node"><title>\\Phine\\Phar\\Signature\\Algorithm\\SHA512</title>
<polygon fill="none" stroke="black" points="1019,-542 957,-542 957,-506 1019,-506 1019,-542"/>
<text text-anchor="middle" x="988" y="-521.1" font-family="Times Roman,serif" font-size="11.00">SHA512</text>
</g>
<!-- \\Phine\\Phar\\Signature\\Algorithm\\SHA512&#45;&gt;\\Phine\\Phar\\Signature\\Algorithm\\AbstractHashAlgorithm -->
<g id="edge22" class="edge"><title>\\Phine\\Phar\\Signature\\Algorithm\\SHA512&#45;&gt;\\Phine\\Phar\\Signature\\Algorithm\\AbstractHashAlgorithm</title>
<path fill="none" stroke="black" d="M956.905,-512.244C944.737,-507.582 930.682,-502.12 918,-497 889.372,-485.444 883.228,-479.939 854,-470 847.202,-467.688 840.095,-465.456 832.93,-463.333"/>
<polygon fill="none" stroke="black" points="833.726,-459.92 823.147,-460.508 831.784,-466.645 833.726,-459.92"/>
</g>
<!-- \\Phine\\Phar\\Signature\\Algorithm\\MD5 -->
<g id="node15" class="node"><title>\\Phine\\Phar\\Signature\\Algorithm\\MD5</title>
<polygon fill="none" stroke="black" points="1015,-488 961,-488 961,-452 1015,-452 1015,-488"/>
<text text-anchor="middle" x="988" y="-467.1" font-family="Times Roman,serif" font-size="11.00">MD5</text>
</g>
<!-- \\Phine\\Phar\\Signature\\Algorithm\\MD5&#45;&gt;\\Phine\\Phar\\Signature\\Algorithm\\AbstractHashAlgorithm -->
<g id="edge24" class="edge"><title>\\Phine\\Phar\\Signature\\Algorithm\\MD5&#45;&gt;\\Phine\\Phar\\Signature\\Algorithm\\AbstractHashAlgorithm</title>
<path fill="none" stroke="black" d="M960.813,-466.903C929.784,-463.368 877.562,-457.418 832.981,-452.34"/>
<polygon fill="none" stroke="black" points="833.342,-448.858 823.01,-451.204 832.55,-455.813 833.342,-448.858"/>
</g>
<!-- \\Phine\\Phar\\Signature\\Algorithm\\OpenSSL -->
<g id="node16" class="node"><title>\\Phine\\Phar\\Signature\\Algorithm\\OpenSSL</title>
<polygon fill="none" stroke="black" points="784,-515 718,-515 718,-479 784,-479 784,-515"/>
<text text-anchor="middle" x="751" y="-494.1" font-family="Times Roman,serif" font-size="11.00">OpenSSL</text>
</g>
<!-- \\Phine\\Phar\\Signature\\Algorithm\\OpenSSL&#45;&gt;\\Phine\\Phar\\Signature\\Algorithm\\AlgorithmInterface -->
<g id="edge26" class="edge"><title>\\Phine\\Phar\\Signature\\Algorithm\\OpenSSL&#45;&gt;\\Phine\\Phar\\Signature\\Algorithm\\AlgorithmInterface</title>
<path fill="none" stroke="black" stroke-dasharray="1,5" d="M717.438,-493.16C682.846,-489.203 627.924,-482.919 584.009,-477.895"/>
<polygon fill="none" stroke="black" points="584.295,-474.405 573.962,-476.746 583.5,-481.36 584.295,-474.405"/>
</g>
<!-- \\Phine\\Phar\\Signature\\Algorithm\\SHA1 -->
<g id="node17" class="node"><title>\\Phine\\Phar\\Signature\\Algorithm\\SHA1</title>
<polygon fill="none" stroke="black" points="1015,-434 961,-434 961,-398 1015,-398 1015,-434"/>
<text text-anchor="middle" x="988" y="-413.1" font-family="Times Roman,serif" font-size="11.00">SHA1</text>
</g>
<!-- \\Phine\\Phar\\Signature\\Algorithm\\SHA1&#45;&gt;\\Phine\\Phar\\Signature\\Algorithm\\AbstractHashAlgorithm -->
<g id="edge28" class="edge"><title>\\Phine\\Phar\\Signature\\Algorithm\\SHA1&#45;&gt;\\Phine\\Phar\\Signature\\Algorithm\\AbstractHashAlgorithm</title>
<path fill="none" stroke="black" d="M960.813,-419.097C929.784,-422.632 877.562,-428.582 832.981,-433.66"/>
<polygon fill="none" stroke="black" points="832.55,-430.187 823.01,-434.796 833.342,-437.142 832.55,-430.187"/>
</g>
<!-- \\Phine\\Phar\\Signature\\Algorithm\\SHA256 -->
<g id="node18" class="node"><title>\\Phine\\Phar\\Signature\\Algorithm\\SHA256</title>
<polygon fill="none" stroke="black" points="1019,-380 957,-380 957,-344 1019,-344 1019,-380"/>
<text text-anchor="middle" x="988" y="-359.1" font-family="Times Roman,serif" font-size="11.00">SHA256</text>
</g>
<!-- \\Phine\\Phar\\Signature\\Algorithm\\SHA256&#45;&gt;\\Phine\\Phar\\Signature\\Algorithm\\AbstractHashAlgorithm -->
<g id="edge30" class="edge"><title>\\Phine\\Phar\\Signature\\Algorithm\\SHA256&#45;&gt;\\Phine\\Phar\\Signature\\Algorithm\\AbstractHashAlgorithm</title>
<path fill="none" stroke="black" d="M956.726,-373.332C944.535,-377.94 930.511,-383.475 918,-389 888.909,-401.848 884.013,-410.483 854,-421 847.238,-423.37 840.132,-425.529 832.947,-427.488"/>
<polygon fill="none" stroke="black" points="831.925,-424.137 823.124,-430.034 833.682,-430.913 831.925,-424.137"/>
</g>
<!-- \\Phine\\Phar\\Exception\\BuilderException -->
<g id="node21" class="node"><title>\\Phine\\Phar\\Exception\\BuilderException</title>
<polygon fill="none" stroke="black" points="1041,-1252 935,-1252 935,-1216 1041,-1216 1041,-1252"/>
<text text-anchor="middle" x="988" y="-1231.1" font-family="Times Roman,serif" font-size="11.00">BuilderException</text>
</g>
<!-- \\Phine\\Exception\\Exception -->
<g id="node41" class="node"><title>\\Phine\\Exception\\Exception</title>
<polygon fill="none" stroke="black" points="344,-1785 274,-1785 274,-1749 344,-1749 344,-1785"/>
<text text-anchor="middle" x="309" y="-1764.1" font-family="Times Roman,serif" font-size="11.00">Exception</text>
</g>
<!-- \\Phine\\Phar\\Exception\\BuilderException&#45;&gt;\\Phine\\Exception\\Exception -->
<g id="edge32" class="edge"><title>\\Phine\\Phar\\Exception\\BuilderException&#45;&gt;\\Phine\\Exception\\Exception</title>
<path fill="none" stroke="black" d="M934.079,-1215.9C881.03,-1201.82 800.936,-1191.1 751,-1234"/>
</g>
<!-- \\Phine\\Phar\\Exception\\ArchiveException -->
<g id="node22" class="node"><title>\\Phine\\Phar\\Exception\\ArchiveException</title>
<polygon fill="none" stroke="black" points="1043,-1144 933,-1144 933,-1108 1043,-1108 1043,-1144"/>
<text text-anchor="middle" x="988" y="-1123.1" font-family="Times Roman,serif" font-size="11.00">ArchiveException</text>
</g>
<!-- \\Phine\\Phar\\Exception\\ArchiveException&#45;&gt;\\Phine\\Exception\\Exception -->
<g id="edge34" class="edge"><title>\\Phine\\Phar\\Exception\\ArchiveException&#45;&gt;\\Phine\\Exception\\Exception</title>
<path fill="none" stroke="black" d="M932.749,-1141.36C881.297,-1157.79 804.676,-1187.89 751,-1234"/>
<path fill="none" stroke="black" d="M751,-1234C553.452,-1403.71 799.644,-1640.8 592,-1798 522.426,-1850.67 414.211,-1815.95 353.747,-1789.32"/>
<polygon fill="none" stroke="black" points="355.02,-1786.06 344.466,-1785.13 352.141,-1792.44 355.02,-1786.06"/>
</g>
<!-- \\Phine\\Phar\\Exception\\FileException -->
<g id="node23" class="node"><title>\\Phine\\Phar\\Exception\\FileException</title>
<polygon fill="none" stroke="black" points="1032,-1198 944,-1198 944,-1162 1032,-1162 1032,-1198"/>
<text text-anchor="middle" x="988" y="-1177.1" font-family="Times Roman,serif" font-size="11.00">FileException</text>
</g>
<!-- \\Phine\\Phar\\Exception\\FileException&#45;&gt;\\Phine\\Exception\\Exception -->
<g id="edge36" class="edge"><title>\\Phine\\Phar\\Exception\\FileException&#45;&gt;\\Phine\\Exception\\Exception</title>
<path fill="none" stroke="black" d="M943.694,-1178.36C891.564,-1178.83 805.257,-1187.39 751,-1234"/>
</g>
<!-- \\Phine\\Phar\\Exception\\SignatureException -->
<g id="node24" class="node"><title>\\Phine\\Phar\\Exception\\SignatureException</title>
<polygon fill="none" stroke="black" points="1049,-1090 927,-1090 927,-1054 1049,-1054 1049,-1090"/>
<text text-anchor="middle" x="988" y="-1069.1" font-family="Times Roman,serif" font-size="11.00">SignatureException</text>
</g>
<!-- \\Phine\\Phar\\Exception\\SignatureException&#45;&gt;\\Phine\\Exception\\Exception -->
<g id="edge38" class="edge"><title>\\Phine\\Phar\\Exception\\SignatureException&#45;&gt;\\Phine\\Exception\\Exception</title>
<path fill="none" stroke="black" d="M957.564,-1053.89C943.035,-1043.54 926.909,-1029.2 918,-1012 848.18,-877.233 966.24,-434.172 854,-332 836.663,-316.218 448.868,-315.718 432,-332 318.968,-441.103 477.913,-1620.58 382,-1745 375.256,-1753.75 365.151,-1759.13 354.594,-1762.41"/>
<polygon fill="none" stroke="black" points="353.693,-1759.03 344.854,-1764.87 355.406,-1765.82 353.693,-1759.03"/>
</g>
<!-- \\Phine\\Phar\\Subject\\Builder\\BuildDirectory -->
<g id="node27" class="node"><title>\\Phine\\Phar\\Subject\\Builder\\BuildDirectory</title>
<polygon fill="none" stroke="black" points="1034,-978 942,-978 942,-942 1034,-942 1034,-978"/>
<text text-anchor="middle" x="988" y="-957.1" font-family="Times Roman,serif" font-size="11.00">BuildDirectory</text>
</g>
<!-- \\Phine\\Phar\\Subject\\AbstractSubject -->
<g id="node33" class="node"><title>\\Phine\\Phar\\Subject\\AbstractSubject</title>
<polygon fill="none" stroke="black" points="803,-870 699,-870 699,-834 803,-834 803,-870"/>
<text text-anchor="start" x="721" y="-857.433" font-family="Times Roman,serif" font-size="11.00">«abstract»</text>
<text text-anchor="start" x="707" y="-844.233" font-family="Times Roman,serif" font-size="11.00">AbstractSubject</text>
</g>
<!-- \\Phine\\Phar\\Subject\\Builder\\BuildDirectory&#45;&gt;\\Phine\\Phar\\Subject\\AbstractSubject -->
<g id="edge42" class="edge"><title>\\Phine\\Phar\\Subject\\Builder\\BuildDirectory&#45;&gt;\\Phine\\Phar\\Subject\\AbstractSubject</title>
<path fill="none" stroke="black" d="M941.84,-942.824C933.844,-939.67 925.646,-936.322 918,-933 875.722,-914.631 828.548,-891.499 795.15,-874.663"/>
<polygon fill="none" stroke="black" points="796.615,-871.481 786.111,-870.09 793.455,-877.727 796.615,-871.481"/>
</g>
<!-- \\Phine\\Phar\\Subject\\Builder\\AddDirectory -->
<g id="node28" class="node"><title>\\Phine\\Phar\\Subject\\Builder\\AddDirectory</title>
<polygon fill="none" stroke="black" points="1031,-924 945,-924 945,-888 1031,-888 1031,-924"/>
<text text-anchor="middle" x="988" y="-903.1" font-family="Times Roman,serif" font-size="11.00">AddDirectory</text>
</g>
<!-- \\Phine\\Phar\\Subject\\Builder\\AddDirectory&#45;&gt;\\Phine\\Phar\\Subject\\AbstractSubject -->
<g id="edge44" class="edge"><title>\\Phine\\Phar\\Subject\\Builder\\AddDirectory&#45;&gt;\\Phine\\Phar\\Subject\\AbstractSubject</title>
<path fill="none" stroke="black" d="M944.254,-896.033C907.557,-887.671 854.692,-875.626 813.527,-866.247"/>
<polygon fill="none" stroke="black" points="814.126,-862.794 803.599,-863.984 812.571,-869.619 814.126,-862.794"/>
</g>
<!-- \\Phine\\Phar\\Subject\\Builder\\AddFile -->
<g id="node29" class="node"><title>\\Phine\\Phar\\Subject\\Builder\\AddFile</title>
<polygon fill="none" stroke="black" points="1015,-870 961,-870 961,-834 1015,-834 1015,-870"/>
<text text-anchor="middle" x="988" y="-849.1" font-family="Times Roman,serif" font-size="11.00">AddFile</text>
</g>
<!-- \\Phine\\Phar\\Subject\\Builder\\AddFile&#45;&gt;\\Phine\\Phar\\Subject\\AbstractSubject -->
<g id="edge46" class="edge"><title>\\Phine\\Phar\\Subject\\Builder\\AddFile&#45;&gt;\\Phine\\Phar\\Subject\\AbstractSubject</title>
<path fill="none" stroke="black" d="M960.349,-852C924.629,-852 861.385,-852 813.73,-852"/>
<polygon fill="none" stroke="black" points="813.508,-848.5 803.508,-852 813.508,-855.5 813.508,-848.5"/>
</g>
<!-- \\Phine\\Phar\\Subject\\Builder\\AddString -->
<g id="node30" class="node"><title>\\Phine\\Phar\\Subject\\Builder\\AddString</title>
<polygon fill="none" stroke="black" points="1023,-816 953,-816 953,-780 1023,-780 1023,-816"/>
<text text-anchor="middle" x="988" y="-795.1" font-family="Times Roman,serif" font-size="11.00">AddString</text>
</g>
<!-- \\Phine\\Phar\\Subject\\Builder\\AddString&#45;&gt;\\Phine\\Phar\\Subject\\AbstractSubject -->
<g id="edge48" class="edge"><title>\\Phine\\Phar\\Subject\\Builder\\AddString&#45;&gt;\\Phine\\Phar\\Subject\\AbstractSubject</title>
<path fill="none" stroke="black" d="M952.775,-806.026C916.091,-814.384 857.879,-827.648 813.388,-837.785"/>
<polygon fill="none" stroke="black" points="812.517,-834.394 803.544,-840.028 814.072,-841.219 812.517,-834.394"/>
</g>
<!-- \\Phine\\Phar\\Subject\\Builder\\BuildIterator -->
<g id="node31" class="node"><title>\\Phine\\Phar\\Subject\\Builder\\BuildIterator</title>
<polygon fill="none" stroke="black" points="1029,-762 947,-762 947,-726 1029,-726 1029,-762"/>
<text text-anchor="middle" x="988" y="-741.1" font-family="Times Roman,serif" font-size="11.00">BuildIterator</text>
</g>
<!-- \\Phine\\Phar\\Subject\\Builder\\BuildIterator&#45;&gt;\\Phine\\Phar\\Subject\\AbstractSubject -->
<g id="edge50" class="edge"><title>\\Phine\\Phar\\Subject\\Builder\\BuildIterator&#45;&gt;\\Phine\\Phar\\Subject\\AbstractSubject</title>
<path fill="none" stroke="black" d="M946.311,-759.423C936.937,-763.073 927.079,-767.055 918,-771 875.722,-789.369 828.548,-812.501 795.15,-829.337"/>
<polygon fill="none" stroke="black" points="793.455,-826.273 786.111,-833.91 796.615,-832.519 793.455,-826.273"/>
</g>
<!-- \\Phine\\Phar\\Subject\\Builder\\SetStub -->
<g id="node32" class="node"><title>\\Phine\\Phar\\Subject\\Builder\\SetStub</title>
<polygon fill="none" stroke="black" points="1018,-708 958,-708 958,-672 1018,-672 1018,-708"/>
<text text-anchor="middle" x="988" y="-687.1" font-family="Times Roman,serif" font-size="11.00">SetStub</text>
</g>
<!-- \\Phine\\Phar\\Subject\\Builder\\SetStub&#45;&gt;\\Phine\\Phar\\Subject\\AbstractSubject -->
<g id="edge52" class="edge"><title>\\Phine\\Phar\\Subject\\Builder\\SetStub&#45;&gt;\\Phine\\Phar\\Subject\\AbstractSubject</title>
<path fill="none" stroke="black" d="M957.424,-699.457C944.808,-703.947 930.293,-709.896 918,-717 863.543,-748.468 808.336,-797.089 777.017,-826.589"/>
<polygon fill="none" stroke="black" points="774.42,-824.229 769.584,-833.655 779.243,-829.302 774.42,-824.229"/>
</g>
<!-- \\Phine\\Observer\\Subject -->
<g id="node50" class="node"><title>\\Phine\\Observer\\Subject</title>
<polygon fill="none" stroke="black" points="543,-2070 487,-2070 487,-2034 543,-2034 543,-2070"/>
<text text-anchor="middle" x="515" y="-2049.1" font-family="Times Roman,serif" font-size="11.00">Subject</text>
</g>
<!-- \\Phine\\Phar\\Subject\\AbstractSubject&#45;&gt;\\Phine\\Observer\\Subject -->
<g id="edge40" class="edge"><title>\\Phine\\Phar\\Subject\\AbstractSubject&#45;&gt;\\Phine\\Observer\\Subject</title>
<path fill="none" stroke="black" d="M749.731,-870.306C739.719,-1012.53 671.757,-1937.83 592,-2030 582.41,-2041.08 567.662,-2046.77 553.63,-2049.62"/>
<polygon fill="none" stroke="black" points="552.937,-2046.19 543.623,-2051.24 554.052,-2053.1 552.937,-2046.19"/>
</g>
<!-- \\Phine\\Phar\\Subject\\Arguments -->
<g id="node34" class="node"><title>\\Phine\\Phar\\Subject\\Arguments</title>
<polygon fill="none" stroke="black" points="1026,-654 950,-654 950,-618 1026,-618 1026,-654"/>
<text text-anchor="middle" x="988" y="-633.1" font-family="Times Roman,serif" font-size="11.00">Arguments</text>
</g>
<!-- \\ArrayAccess -->
<g id="node76" class="node"><title>\\ArrayAccess</title>
<ellipse fill="none" stroke="black" cx="90" cy="-72" rx="73.0388" ry="18.3848"/>
<text text-anchor="middle" x="90" y="-68.4" font-family="Times Roman,serif" font-size="14.00" fill="gray">\ArrayAccess</text>
</g>
<!-- \\Phine\\Phar\\Subject\\Arguments&#45;&gt;\\ArrayAccess -->
<g id="edge54" class="edge"><title>\\Phine\\Phar\\Subject\\Arguments&#45;&gt;\\ArrayAccess</title>
<path fill="none" stroke="black" stroke-dasharray="1,5" d="M959.307,-617.819C944.883,-607.272 928.32,-592.766 918,-576 855.619,-474.655 935.25,-402.952 854,-316 670.863,-120.01 330.711,-80.8188 173.567,-73.4245"/>
<polygon fill="none" stroke="black" points="173.628,-69.924 163.484,-72.9822 173.321,-76.9172 173.628,-69.924"/>
</g>
<!-- \\IteratorAggregate -->
<g id="node78" class="node"><title>\\IteratorAggregate</title>
<ellipse fill="none" stroke="black" cx="751" cy="-72" rx="103.238" ry="18.3848"/>
<text text-anchor="middle" x="751" y="-68.4" font-family="Times Roman,serif" font-size="14.00" fill="gray">\IteratorAggregate</text>
</g>
<!-- \\Phine\\Phar\\Subject\\Arguments&#45;&gt;\\IteratorAggregate -->
<g id="edge56" class="edge"><title>\\Phine\\Phar\\Subject\\Arguments&#45;&gt;\\IteratorAggregate</title>
<path fill="none" stroke="black" stroke-dasharray="1,5" d="M958.422,-617.875C943.935,-607.436 927.588,-593.012 918,-576 832.616,-424.508 928.222,-347.262 854,-190 836.586,-153.103 804.204,-118.923 780.38,-96.949"/>
<polygon fill="none" stroke="black" points="782.43,-94.0842 772.663,-89.9787 777.738,-99.2789 782.43,-94.0842"/>
</g>
<!-- \\Phine\\Phar\\Builder -->
<g id="node35" class="node"><title>\\Phine\\Phar\\Builder</title>
<polygon fill="none" stroke="black" points="1015,-1326 961,-1326 961,-1290 1015,-1290 1015,-1326"/>
<text text-anchor="middle" x="988" y="-1305.1" font-family="Times Roman,serif" font-size="11.00">Builder</text>
</g>
<!-- \\Phine\\Observer\\Collection -->
<g id="node51" class="node"><title>\\Phine\\Observer\\Collection</title>
<polygon fill="none" stroke="black" points="343,-2124 275,-2124 275,-2088 343,-2088 343,-2124"/>
<text text-anchor="middle" x="309" y="-2103.1" font-family="Times Roman,serif" font-size="11.00">Collection</text>
</g>
<!-- \\Phine\\Phar\\Builder&#45;&gt;\\Phine\\Observer\\Collection -->
<g id="edge18" class="edge"><title>\\Phine\\Phar\\Builder&#45;&gt;\\Phine\\Observer\\Collection</title>
<path fill="none" stroke="black" d="M960.937,-1311.76C946.633,-1314.99 929.67,-1320.97 918,-1332 638.688,-1596.03 910.918,-1918.48 592,-2133 519.652,-2181.67 412.384,-2150.3 352.847,-2126.19"/>
<polygon fill="none" stroke="black" points="353.939,-2122.86 343.362,-2122.25 351.251,-2129.32 353.939,-2122.86"/>
</g>
<!-- \\Phine\\Phar\\Extract -->
<g id="node36" class="node"><title>\\Phine\\Phar\\Extract</title>
<polygon fill="none" stroke="black" points="1016,-320 960,-320 960,-284 1016,-284 1016,-320"/>
<text text-anchor="middle" x="988" y="-299.1" font-family="Times Roman,serif" font-size="11.00">Extract</text>
</g>
<!-- \\Phine\\Phar\\Signature -->
<g id="node37" class="node"><title>\\Phine\\Phar\\Signature</title>
<polygon fill="none" stroke="black" points="1022,-266 954,-266 954,-230 1022,-230 1022,-266"/>
<text text-anchor="middle" x="988" y="-245.1" font-family="Times Roman,serif" font-size="11.00">Signature</text>
</g>
<!-- \\Phine\\Phar\\Archive -->
<g id="node38" class="node"><title>\\Phine\\Phar\\Archive</title>
<polygon fill="none" stroke="black" points="1016,-212 960,-212 960,-176 1016,-176 1016,-212"/>
<text text-anchor="middle" x="988" y="-191.1" font-family="Times Roman,serif" font-size="11.00">Archive</text>
</g>
<!-- \\Phine\\Phar\\Stub -->
<g id="node39" class="node"><title>\\Phine\\Phar\\Stub</title>
<polygon fill="none" stroke="black" points="1015,-158 961,-158 961,-122 1015,-122 1015,-158"/>
<text text-anchor="middle" x="988" y="-137.1" font-family="Times Roman,serif" font-size="11.00">Stub</text>
</g>
<!-- \\Exception -->
<g id="node80" class="node"><title>\\Exception</title>
<ellipse fill="none" stroke="black" cx="90" cy="-18" rx="62.9325" ry="18.3848"/>
<text text-anchor="middle" x="90" y="-14.4" font-family="Times Roman,serif" font-size="14.00" fill="gray">\Exception</text>
</g>
<!-- \\Phine\\Exception\\Exception&#45;&gt;\\Exception -->
<g id="edge58" class="edge"><title>\\Phine\\Exception\\Exception&#45;&gt;\\Exception</title>
<path fill="none" stroke="black" d="M308.641,-1748.79C305.037,-1573.46 273.18,-187.884 164,-45 160.383,-40.2663 155.854,-36.3618 150.828,-33.1414"/>
<polygon fill="none" stroke="black" points="152.434,-30.0308 141.975,-28.3418 149.098,-36.1847 152.434,-30.0308"/>
</g>
<!-- \\Phine\\Path\\Exception\\PathException -->
<g id="node44" class="node"><title>\\Phine\\Path\\Exception\\PathException</title>
<polygon fill="none" stroke="black" points="562,-1764 468,-1764 468,-1728 562,-1728 562,-1764"/>
<text text-anchor="middle" x="515" y="-1743.1" font-family="Times Roman,serif" font-size="11.00">PathException</text>
</g>
<!-- \\Phine\\Path\\Exception\\PathException&#45;&gt;\\Phine\\Exception\\Exception -->
<g id="edge60" class="edge"><title>\\Phine\\Path\\Exception\\PathException&#45;&gt;\\Phine\\Exception\\Exception</title>
<path fill="none" stroke="black" d="M467.481,-1750.84C433.561,-1754.3 388.199,-1758.93 354.698,-1762.34"/>
<polygon fill="none" stroke="black" points="354.302,-1758.86 344.708,-1763.36 355.012,-1765.83 354.302,-1758.86"/>
</g>
<!-- \\Phine\\Path\\Path -->
<g id="node45" class="node"><title>\\Phine\\Path\\Path</title>
<polygon fill="none" stroke="black" points="542,-1710 488,-1710 488,-1674 542,-1674 542,-1710"/>
<text text-anchor="middle" x="515" y="-1689.1" font-family="Times Roman,serif" font-size="11.00">Path</text>
</g>
<!-- \\Phine\\Observer\\Exception\\CollectionException -->
<g id="node48" class="node"><title>\\Phine\\Observer\\Exception\\CollectionException</title>
<polygon fill="none" stroke="black" points="576,-1996 454,-1996 454,-1960 576,-1960 576,-1996"/>
<text text-anchor="middle" x="515" y="-1975.1" font-family="Times Roman,serif" font-size="11.00">CollectionException</text>
</g>
<!-- \\Phine\\Observer\\Exception\\CollectionException&#45;&gt;\\Phine\\Exception\\Exception -->
<g id="edge70" class="edge"><title>\\Phine\\Observer\\Exception\\CollectionException&#45;&gt;\\Phine\\Exception\\Exception</title>
<path fill="none" stroke="black" d="M453.745,-1964.68C445.843,-1961.14 438.317,-1956.67 432,-1951 391.718,-1914.88 412.744,-1884.52 382,-1840 369.798,-1822.33 353.028,-1805.21 338.638,-1791.99"/>
<polygon fill="none" stroke="black" points="340.712,-1789.15 330.933,-1785.08 336.035,-1794.36 340.712,-1789.15"/>
</g>
<!-- \\Phine\\Observer\\Exception\\ReasonException -->
<g id="node49" class="node"><title>\\Phine\\Observer\\Exception\\ReasonException</title>
<polygon fill="none" stroke="black" points="570,-1942 460,-1942 460,-1906 570,-1906 570,-1942"/>
<text text-anchor="middle" x="515" y="-1921.1" font-family="Times Roman,serif" font-size="11.00">ReasonException</text>
</g>
<!-- \\Phine\\Observer\\Exception\\ReasonException&#45;&gt;\\Phine\\Exception\\Exception -->
<g id="edge72" class="edge"><title>\\Phine\\Observer\\Exception\\ReasonException&#45;&gt;\\Phine\\Exception\\Exception</title>
<path fill="none" stroke="black" d="M459.78,-1914.62C450.056,-1911.53 440.378,-1907.44 432,-1902 402.305,-1882.73 405.66,-1866.33 382,-1840 367.243,-1823.58 349.784,-1806.06 335.642,-1792.3"/>
<polygon fill="none" stroke="black" points="337.787,-1789.5 328.164,-1785.07 332.923,-1794.54 337.787,-1789.5"/>
</g>
<!-- \\Phine\\Observer\\SubjectInterface -->
<g id="node54" class="node"><title>\\Phine\\Observer\\SubjectInterface</title>
<polygon fill="none" stroke="black" points="361,-2016 257,-2016 257,-1980 361,-1980 361,-2016"/>
<text text-anchor="middle" x="309" y="-1995.1" font-family="Times Roman,serif" font-size="11.00">SubjectInterface</text>
</g>
<!-- \\Phine\\Observer\\Subject&#45;&gt;\\Phine\\Observer\\SubjectInterface -->
<g id="edge62" class="edge"><title>\\Phine\\Observer\\Subject&#45;&gt;\\Phine\\Observer\\SubjectInterface</title>
<path fill="none" stroke="black" stroke-dasharray="1,5" d="M486.357,-2044.49C456.825,-2036.75 409.83,-2024.43 371.634,-2014.42"/>
<polygon fill="none" stroke="black" points="372.185,-2010.94 361.624,-2011.79 370.41,-2017.72 372.185,-2010.94"/>
</g>
<!-- \\Phine\\Observer\\CollectionInterface -->
<g id="node55" class="node"><title>\\Phine\\Observer\\CollectionInterface</title>
<polygon fill="none" stroke="black" points="148,-2097 32,-2097 32,-2061 148,-2061 148,-2097"/>
<text text-anchor="middle" x="90" y="-2076.1" font-family="Times Roman,serif" font-size="11.00">CollectionInterface</text>
</g>
<!-- \\Phine\\Observer\\Collection&#45;&gt;\\Phine\\Observer\\CollectionInterface -->
<g id="edge64" class="edge"><title>\\Phine\\Observer\\Collection&#45;&gt;\\Phine\\Observer\\CollectionInterface</title>
<path fill="none" stroke="black" stroke-dasharray="1,5" d="M274.781,-2101.78C243.75,-2097.96 197.085,-2092.2 158.415,-2087.43"/>
<polygon fill="none" stroke="black" points="158.61,-2083.93 148.257,-2086.18 157.753,-2090.88 158.61,-2083.93"/>
</g>
<!-- \\Phine\\Observer\\ArrayCollection -->
<g id="node52" class="node"><title>\\Phine\\Observer\\ArrayCollection</title>
<polygon fill="none" stroke="black" points="564,-2124 466,-2124 466,-2088 564,-2088 564,-2124"/>
<text text-anchor="middle" x="515" y="-2103.1" font-family="Times Roman,serif" font-size="11.00">ArrayCollection</text>
</g>
<!-- \\Phine\\Observer\\ArrayCollection&#45;&gt;\\Phine\\Observer\\Collection -->
<g id="edge66" class="edge"><title>\\Phine\\Observer\\ArrayCollection&#45;&gt;\\Phine\\Observer\\Collection</title>
<path fill="none" stroke="black" d="M465.92,-2106C431.772,-2106 386.612,-2106 353.509,-2106"/>
<polygon fill="none" stroke="black" points="353.215,-2102.5 343.214,-2106 353.214,-2109.5 353.215,-2102.5"/>
</g>
<!-- \\Phine\\Observer\\ArrayCollectionInterface -->
<g id="node56" class="node"><title>\\Phine\\Observer\\ArrayCollectionInterface</title>
<polygon fill="none" stroke="black" points="382,-2070 236,-2070 236,-2034 382,-2034 382,-2070"/>
<text text-anchor="middle" x="309" y="-2049.1" font-family="Times Roman,serif" font-size="11.00">ArrayCollectionInterface</text>
</g>
<!-- \\Phine\\Observer\\ArrayCollection&#45;&gt;\\Phine\\Observer\\ArrayCollectionInterface -->
<g id="edge68" class="edge"><title>\\Phine\\Observer\\ArrayCollection&#45;&gt;\\Phine\\Observer\\ArrayCollectionInterface</title>
<path fill="none" stroke="black" stroke-dasharray="1,5" d="M465.92,-2093.13C442.599,-2087.02 414.142,-2079.56 387.897,-2072.68"/>
<polygon fill="none" stroke="black" points="388.523,-2069.23 377.963,-2070.08 386.748,-2076 388.523,-2069.23"/>
</g>
<!-- \\Phine\\Observer\\ObserverInterface -->
<g id="node53" class="node"><title>\\Phine\\Observer\\ObserverInterface</title>
<polygon fill="none" stroke="black" points="572,-1888 458,-1888 458,-1852 572,-1852 572,-1888"/>
<text text-anchor="middle" x="515" y="-1867.1" font-family="Times Roman,serif" font-size="11.00">ObserverInterface</text>
</g>
<!-- \\Phine\\Observer\\ArrayCollectionInterface&#45;&gt;\\Phine\\Observer\\CollectionInterface -->
<g id="edge76" class="edge"><title>\\Phine\\Observer\\ArrayCollectionInterface&#45;&gt;\\Phine\\Observer\\CollectionInterface</title>
<path fill="none" stroke="black" d="M235.772,-2061.03C210.745,-2064.11 182.868,-2067.55 158.249,-2070.59"/>
<polygon fill="none" stroke="black" points="157.772,-2067.12 148.275,-2071.82 158.628,-2074.07 157.772,-2067.12"/>
</g>
<!-- \\Phine\\Observer\\ArrayCollectionInterface&#45;&gt;\\ArrayAccess -->
<g id="edge74" class="edge"><title>\\Phine\\Observer\\ArrayCollectionInterface&#45;&gt;\\ArrayAccess</title>
<path fill="none" stroke="black" d="M244.793,-2033.85C241.501,-2031.28 238.52,-2028.35 236,-2025 114.859,-1864.18 92.8999,-328.931 90.2946,-100.391"/>
<polygon fill="none" stroke="black" points="93.7926,-100.186 90.1818,-90.2255 86.793,-100.264 93.7926,-100.186"/>
</g>
</g>
</svg>
